<svg xmlns="http://www.w3.org/2000/svg" width="1200" height="630" viewBox="0 0 1200 630" font-family="system-ui,Segoe UI,Roboto,sans-serif">
<defs><radialGradient id="g" cx="18%" cy="-10%" r="110%"><stop offset="0%" stop-color="#1c1748"/><stop offset="55%" stop-color="#0d1117"/></radialGradient></defs>
<rect width="1200" height="630" fill="url(#g)"/>
<rect width="1200" height="8" fill="#6c63ff"/>
<g transform="translate(80,80)">
  <rect width="74" height="74" rx="17" fill="#6c63ff"/>
  <path d="M22 19v40h34" fill="none" stroke="#fff" stroke-width="6" stroke-linecap="round" stroke-linejoin="round"/>
  <path d="M31 31h20M31 43h15" stroke="#fff" stroke-width="5.5" stroke-linecap="round" opacity=".85"/>
  <text x="98" y="50" fill="#e6edf3" font-size="42" font-weight="800">LedgerField</text>
</g>
<text x="80" y="300" fill="#e6edf3" font-size="74" font-weight="800">Offline P2P accounting</text>
<text x="80" y="362" fill="#8b949e" font-size="31">Private, offline-first books &#183; tax engine &#183; payroll &#183; data market</text>
<g transform="translate(80,432)"><rect width="210" height="54" rx="27" fill="#161b22" stroke="#30363d"/><text x="105" y="35" text-anchor="middle" font-size="26" fill="#c9d1e8">Offline-first</text></g><g transform="translate(310,432)"><rect width="320" height="54" rx="27" fill="#161b22" stroke="#30363d"/><text x="160" y="35" text-anchor="middle" font-size="26" fill="#c9d1e8">100+ jurisdictions</text></g><g transform="translate(650,432)"><rect width="200" height="54" rx="27" fill="#161b22" stroke="#30363d"/><text x="100" y="35" text-anchor="middle" font-size="26" fill="#c9d1e8">No cloud</text></g><g transform="translate(870,432)"><rect width="250" height="54" rx="27" fill="#161b22" stroke="#30363d"/><text x="125" y="35" text-anchor="middle" font-size="26" fill="#c9d1e8">Encrypted vault</text></g>
<text x="80" y="576" fill="#6c63ff" font-size="30" font-weight="600">www.5mart.ml/ledgerfield</text>
</svg>